<svg xmlns="http://www.w3.org/2000/svg" xmlns:xlink="http://www.w3.org/1999/xlink" width="156" height="25" fill="none" xmlns:v="https://vecta.io/nano"><g fill="#1b2b3f"><path d="M13.836 12.34c0 1.37-.285 2.573-.855 3.606s-1.38 1.834-2.43 2.404c-1.033.552-2.244.828-3.632.828s-2.6-.276-3.66-.828A5.89 5.89 0 0 1 .855 16C.285 14.966 0 13.764 0 12.393S.285 9.82.855 8.787A5.91 5.91 0 0 1 3.26 6.4c1.05-.57 2.27-.855 3.66-.855s2.6.276 3.632.828c1.05.552 1.86 1.344 2.43 2.377.57 1.015.855 2.208.855 3.58zm-6.918 3.873c.962 0 1.754-.365 2.377-1.095.64-.73.962-1.656.962-2.778s-.312-2.04-.935-2.75-1.425-1.07-2.404-1.07c-.962 0-1.763.365-2.404 1.095-.623.73-.935 1.656-.935 2.778s.312 2.04.935 2.75S5.94 16.21 6.918 16.21zM21.743 5.556c2.012 0 3.597.614 4.754 1.843 1.175 1.2 1.763 2.858 1.763 4.94 0 1.353-.267 2.546-.8 3.58-.516 1.033-1.273 1.834-2.27 2.404s-2.18.855-3.552.855c-.534 0-1.095-.116-1.683-.347s-1.13-.525-1.63-.88l-.694.908h-1.763V.294L19.313 0v6.143c.783-.392 1.594-.588 2.43-.588zM21.6 16.213c.944 0 1.692-.356 2.244-1.068.552-.73.828-1.665.828-2.804s-.276-2.057-.828-2.75c-.524-.715-1.274-1.07-2.244-1.07-.748 0-1.514.258-2.297.775v6.17c.73.5 1.496.748 2.297.748zM32.17 4.06c-.552 0-1.015-.187-1.4-.56a1.88 1.88 0 0 1-.56-1.39 1.89 1.89 0 0 1 .56-1.39 1.88 1.88 0 0 1 1.39-.56 1.89 1.89 0 0 1 1.39.56 1.84 1.84 0 0 1 .588 1.389 1.84 1.84 0 0 1-.588 1.389c-.374.374-.837.56-1.4.56zm1.763 15.1c0 .872-.116 1.594-.347 2.163-.23.588-.65 1.095-1.255 1.522-.588.445-1.442.846-2.564 1.202l-1.362-2.644c.605-.214 1.05-.463 1.335-.748.303-.267.5-.58.56-.935.1-.338.134-.8.134-1.4V5.903h3.5V19.15zm14.277-6.8c0-1.264-.214-2.404-.64-3.42a5.39 5.39 0 0 0-1.976-2.457c-.9-.605-1.986-.908-3.285-.908-1.336 0-2.493.285-3.472.855-.98.552-1.736 1.344-2.27 2.377-.516 1.033-.775 2.235-.775 3.606 0 2.12.632 3.784 1.896 4.995 1.282 1.193 3.152 1.8 5.6 1.8 1.05 0 1.96-.133 2.724-.4a7.93 7.93 0 0 0 2.137-1.202l-1.015-2.5c-.66.374-1.273.66-1.843.855s-1.2.294-1.923.294c-1.23 0-2.146-.24-2.75-.72-.588-.48-.97-1.175-1.15-2.083h8.734V12.34zm-8.707-1.255c.142-.837.454-1.47.935-1.896.48-.445 1.077-.668 1.8-.668s1.3.214 1.736.64c.463.427.784 1.068.962 1.923h-5.422zM53.935 5.93V2.244l-3.446.614V5.93h-1.736V8.6h1.736v6.116c0 1.478.454 2.626 1.362 3.446s2.172 1.23 3.793 1.23c.427 0 .9-.08 1.416-.24.534-.16.935-.347 1.202-.56l-1.015-2.5c-.48.23-.953.347-1.416.347-.605 0-1.077-.214-1.416-.64-.32-.427-.48-.988-.48-1.683V8.6h3.42l-1.068-2.67h-2.35zm7.52-1.87c.552 0 1.015-.187 1.4-.56a1.84 1.84 0 0 0 .588-1.389 1.84 1.84 0 0 0-.588-1.389c-.374-.374-.837-.56-1.4-.56-.534 0-.988.187-1.362.56s-.56.837-.56 1.4a1.89 1.89 0 0 0 .56 1.39c.373.375.828.56 1.362.56zm1.763 14.797V5.903h-3.472v12.954h3.472zm9.134 0l5.102-12.954h-3.66l-2.83 7.853-3-8.333-3.392 1.015 4.78 12.42h2.992zm7.7-9.242c.5-.23 1.104-.427 1.816-.588.712-.178 1.362-.267 1.95-.267.64 0 1.14.187 1.496.56.374.356.57.864.588 1.522h-2.537c-1.496 0-2.7.365-3.58 1.095-.9.712-1.335 1.727-1.335 3.045 0 1.282.392 2.306 1.175 3.072.784.748 1.95 1.122 3.5 1.122 1.193 0 2.333-.57 3.42-1.7l.588 1.4h2.27v-8.52a4.15 4.15 0 0 0-.775-2.457c-.5-.73-1.175-1.3-2.03-1.7s-1.798-.614-2.83-.614c-.605 0-1.416.125-2.43.374-1.015.23-1.754.5-2.217.8l.935 2.885zm1.362 5.37c0-.5.17-.926.507-1.282.356-.356.82-.534 1.4-.534h2.618v1.976c-.873.855-1.825 1.282-2.858 1.282-.48 0-.88-.143-1.202-.427-.303-.285-.454-.623-.454-1.015zm11.742 3.872a1.8 1.8 0 0 0 1.362-.56c.374-.374.56-.837.56-1.4a1.89 1.89 0 0 0-.56-1.39c-.356-.374-.8-.56-1.362-.56s-1.024.187-1.416.56c-.374.374-.56.837-.56 1.4a1.89 1.89 0 0 0 .56 1.39c.392.374.864.56 1.416.56zM107.3.027v18.83h-1.096l-.293-1.015c-.517.427-1.078.766-1.683 1.015-.605.232-1.23.347-1.87.347-1.87 0-3.32-.623-4.353-1.87s-1.55-2.902-1.55-4.968c.018-1.3.258-2.466.72-3.5.48-1.033 1.166-1.843 2.057-2.43.908-.588 1.986-.88 3.232-.88 1.033 0 2.083.392 3.152 1.175V.267l1.683-.24zm-4.968 17.788c1.264 0 2.36-.463 3.285-1.4v-8.2c-.445-.4-.926-.72-1.442-.935-.5-.23-1.096-.347-1.8-.347-1.37 0-2.422.507-3.152 1.522-.712.997-1.077 2.288-1.095 3.873 0 1.674.347 3 1.042 4.006.694.98 1.745 1.47 3.152 1.47z"/><use xlink:href="#B"/><path d="M125.463 5.903v14.6c0 .855-.223 1.62-.668 2.297s-1.086 1.21-1.923 1.603-1.807.588-2.91.588c-.588 0-1.345-.107-2.27-.32-.91-.214-1.62-.472-2.137-.775l.507-1.23a10.77 10.77 0 0 0 1.736.641c.588.178 1.29.276 2.1.294 1.14 0 2.066-.267 2.778-.8.73-.534 1.095-1.31 1.095-2.324v-2.404c-1.015.748-2.1 1.122-3.258 1.122-1.87 0-3.32-.623-4.354-1.87s-1.55-2.902-1.55-4.968c.018-1.3.258-2.466.72-3.5.48-1.033 1.166-1.843 2.057-2.43.908-.588 1.985-.88 3.232-.88 1.086 0 2.208.445 3.365 1.335l.374-.988h1.095zm-4.968 11.912c1.264 0 2.36-.463 3.285-1.39v-8.2c-.445-.4-.926-.72-1.442-.935-.5-.23-1.095-.347-1.8-.347-1.37 0-2.42.507-3.15 1.522-.713.997-1.078 2.288-1.095 3.873 0 1.674.347 3.01 1.04 4.006.695.98 1.745 1.47 3.152 1.47z"/><use xlink:href="#B" x="18.069"/><path d="M135.813 6.17V2.217l-1.683.588V6.17h-1.923l.027 1.255h1.896v8.333c0 1.104.285 1.96.855 2.564.57.588 1.335.88 2.297.88.516 0 .926-.053 1.23-.16l.534-.16-.32-1.362a2.77 2.77 0 0 1-1.095.24c-.623 0-1.086-.196-1.4-.588-.285-.392-.427-.926-.427-1.602V7.425h2.9l-.56-1.255h-2.35zm6.32 1.683c.694-.32 1.273-.552 1.736-.694.48-.142 1.14-.214 1.976-.214 1.015 0 1.78.285 2.297.855.534.552.8 1.3.8 2.244v1.3h-3.605c-1.37-.018-2.484.32-3.34 1.015s-1.282 1.647-1.282 2.858c0 1.175.374 2.137 1.122 2.885.748.73 1.825 1.095 3.232 1.095.712 0 1.433-.17 2.163-.508.748-.356 1.344-.766 1.8-1.23l.213 1.4h1.362V9.78c0-1.282-.436-2.306-1.308-3.072s-2.048-1.15-3.526-1.15c-.588 0-1.3.107-2.163.32s-1.514.48-1.977.8l.508 1.175zm.213 7.372c0-.784.258-1.442.775-1.976s1.237-.8 2.163-.8h3.66v3.285a6.88 6.88 0 0 1-1.762 1.523c-.66.392-1.38.588-2.164.588-.9 0-1.558-.258-2.003-.775a2.8 2.8 0 0 1-.668-1.843zm13.17 3.632V0l-1.656.267v18.6h1.656z"/></g><defs ><path id="B" d="M111.465 3.072c.34 0 .632-.116.882-.347.267-.25.4-.552.4-.908s-.133-.65-.4-.88c-.25-.25-.543-.374-.882-.374-.374 0-.676.125-.908.374-.23.23-.347.525-.347.88s.116.66.347.908c.232.23.534.347.908.347zm.855 15.785V5.903h-1.683v12.954h1.683z"/></defs></svg>